<svg xmlns="http://www.w3.org/2000/svg" viewBox="0 0 64 64">
  <!-- Isotipo de Piscinas Acuarel: vaso de piscina visto de perfil con olas. -->
  <path d="M6 26a26 26 0 0 1 52 0v12a20 20 0 0 1-20 20H26A20 20 0 0 1 6 38Z" fill="#ffd400"/>
  <path d="M6 26a26 26 0 0 1 52 0" fill="none" stroke="#1b4c9e" stroke-width="6" stroke-linecap="round"/>
  <path d="M6 26h52v12a20 20 0 0 1-20 20H26A20 20 0 0 1 6 38Z" fill="none" stroke="#1b4c9e" stroke-width="6" stroke-linejoin="round"/>
  <g fill="none" stroke="#1b4c9e" stroke-width="4.5" stroke-linecap="round">
    <path d="M12 36q5-4 10 0t10 0 10 0 10 0"/>
    <path d="M14 46q4.5-4 9 0t9 0 9 0 9 0"/>
  </g>
</svg>
